/* XPM */
static char * unknown[] = {
"32 32 91 2",
"   s None c None",
".. c #0000d5",
"#. c #00008e",
"a. c #5b5b5b",
"b. c #2f30ad",
"c. c #aa00aa",
"d. c #838383",
"e. c #0000c8",
"f. c #00008a",
"g. c #c200c2",
"h. c #2e2fa5",
"i. c #2c2d90",
"j. c #000093",
"k. c #d200d2",
"l. c #3334c6",
"m. c #0000c4",
"n. c #00007d",
"o. c #3436ed",
"p. c #8b008b",
"q. c #3436d7",
"r. c #8c8c8c",
"s. c #3436ff",
"t. c #9b009b",
"u. c #0000df",
"v. c #000098",
"w. c #a300a3",
"x. c #0000c0",
"y. c #6a6a6a",
"z. c #a700a7",
"A. c #0000a1",
"B. c #3334cb",
"C. c #b300b3",
"D. c #af00af",
"E. c #7e7e7e",
"F. c #0000aa",
"G. c #b700b7",
"H. c #373737",
"I. c #bb00bb",
"J. c #0000b3",
"K. c #bf00bf",
"L. c #3436e5",
"M. c #cb00cb",
"N. c #2a2b85",
"O. c #cf00cf",
"P. c #4e4e4e",
"Q. c #880088",
"R. c #0000f6",
"S. c #900090",
"T. c #737373",
"U. c #e300e3",
"V. c #2c2d96",
"W. c #3233bf",
"X. c #0000ff",
"Y. c #3031b3",
"Z. c #a000a0",
"0. c #0000e9",
"1. c #000083",
"2. c #656565",
"3. c #0000f2",
"4. c #3435d0",
"5. c #b000b0",
"6. c #797979",
"7. c #0000e5",
"8. c #c400c4",
"9. c #5250ff",
".# c #c800c8",
"## c #0000ee",
"a# c #0000a7",
"b# c #d800d8",
"c# c #6e6e6e",
"d# c #2e2f9f",
"e# c #606060",
"f# c #969696",
"g# c #ad00ad",
"h# c #0000fc",
"i# c #3436de",
"j# c #888888",
"k# c #0000d0",
"l# c #555555",
"m# c #0000d9",
"n# c #444444",
"o# c #d500d5",
"p# c #0000ba",
"q# c #00009b",
"r# c #dd00dd",
"s# c #e100e1",
"t# c #0000cc",
"u# c #960096",
"v# c #0000ad",
"w# c #919191",
"x# c #3132b9",
"                                                                ",
"              r#b#o#k.O.n#                                      ",
"              b#o#k.O.n#                                        ",
"              o#k.O.n#                                          ",
"              k.O.M.                                            ",
"  U.s#r#b#o#k.O.M..#8.g.K.I.G.C.5.g#c.D.                        ",
"  s#r#b#o#k.O.M..#8.g.K.I.G.C.5.g#c.D.                          ",
"  r#b#o#k.O.M..#8.g.K.I.G.C.5.g#c.D.                            ",
"              8.g.K.n#                                          ",
"              g.K.I.n#                                          ",
"              K.I.G.n#      N.N.N.N.N.N.N.N.N.N.N.N.f#          ",
"              I.G.C.n#    i.i.i.i.i.i.i.i.i.i.i.i.i.i.w#        ",
"              G.C.5.n#    V.V.r.                  V.V.r.        ",
"              C.5.g#n#    d#d#j#  S.p.n#          d#d#j#        ",
"              5.g#c.n#    h.h.d.S.p.Q.n#          h.h.d.        ",
"              g#c.z.n#    b.b.E.p.Q.n#            b.b.E.        ",
"              c.z.w.n#    Y.Y.6.Q.n#              Y.Y.6.        ",
"              z.w.Z.t.u#  x#x#T.n#                x#x#T.        ",
"              w.Z.t.u#S.  W.W.W.W.W.W.W.W.W.W.W.W.W.W.c#        ",
"                t.u#S.p.  l.l.l.l.l.l.l.l.l.l.l.l.l.c#          ",
"                  S.p.Q.  B.B.y.              B.B.B.y.          ",
"                          4.4.2.                4.4.4.2.        ",
"                          q.q.e#                  q.q.e#        ",
"                          i#i#a.                  i#i#a.        ",
"                          L.L.l#                  L.L.l#        ",
"                          o.o.P.                  o.o.P.        ",
"                          s.s.n#                  s.s.n#        ",
"                          9.9.H.                  9.9.H.        ",
"                                                                ",
"    n.1.f.#.j.v.q#A.a#F.v#J.p#x.m.e.t#k#..m#u.7.0.0.3.R.h#X.    ",
"    n.1.1.#.j.v.q#A.a#F.v#J.p#x.m.e.t#k#..m#u.7.0.##3.R.h#X.    ",
"                                                                "};